# xmcd CD database file
#
# Track frame offsets:
#	150
#	19592
#	29367
#	51630
#	70612
#	88340
#	99692
#	118827
#	136469
#	149085
#
# Disc length: 2231 seconds
#
# Revision: 4
# Processed by: cddbd v1.5.2PL0 Copyright (c) Steve Scherf et al.
# Submitted via: CDex 1.70beta2
#
DISCID=9908b50a
DTITLE=Raul Malo - After Hours
DYEAR=2007
DGENRE=Country
TTITLE0=Welcome To My World
TTITLE1=(Now And Then There's) A Fool Such As I
TTITLE2=For The Good Times
TTITLE3=Pocket Of A Clown
TTITLE4=Crying Time
TTITLE5=Cold, Cold Heart
TTITLE6=You Can Depend On Me
TTITLE7=Husbands And Wives
TTITLE8=It Only Hurts Me When I Cry
TTITLE9=Take These Chains From My Heart
EXTD=YEAR: 2007
EXTT0=
EXTT1=
EXTT2=
EXTT3=
EXTT4=
EXTT5=
EXTT6=
EXTT7=
EXTT8=
EXTT9=
PLAYORDER=
